# xmcd
# 
# Track frame offsets:
#     150
#     14566
#     24912
#     40260
#     56582
#     69464
#     81160
#     97048
#     116923
#     133952
#     146975
#     158292
#     174642
# 
# Disc length: 2523
# 
# Revision: 0
# Processed by: cddbd v1.5.2PL0 Copyright (c) Steve Scherf et al.
# Submitted via: BonkEnc v1.0.15
# 
DISCID=b509d90d
DTITLE=Keana Rose - I Feel Lucky
DYEAR=2002
DGENRE=Country
TTITLE0=I Feel Lucky
TTITLE1=Bad Moon Rising
TTITLE2=Desperado
TTITLE3=Don't be stupid
TTITLE4=Except for Monday
TTITLE5=Help me make it...
TTITLE6=Honey i'm Home
TTITLE7=I swear
TTITLE8=It was
TTITLE9=Let'er Rip
TTITLE10=Looking out my Backdoor
TTITLE11=The River
TTITLE12=You're still the One
EXTD=
EXTT0=
EXTT1=
EXTT2=
EXTT3=
EXTT4=
EXTT5=
EXTT6=
EXTT7=
EXTT8=
EXTT9=
EXTT10=
EXTT11=
EXTT12=
PLAYORDER=
